<?xml version="1.0" encoding="UTF-8"?>
<!DOCTYPE svg PUBLIC "-//W3C//DTD SVG 1.1//EN" "http://www.w3.org/Graphics/SVG/1.1/DTD/svg11.dtd">
<svg xmlns="http://www.w3.org/2000/svg" version="1.1" width="500px" height="500px" style="shape-rendering:geometricPrecision; text-rendering:geometricPrecision; image-rendering:optimizeQuality; fill-rule:evenodd; clip-rule:evenodd" xmlns:xlink="http://www.w3.org/1999/xlink">
<g><path style="opacity:1" fill="#fefefe" d="M -0.5,-0.5 C 166.167,-0.5 332.833,-0.5 499.5,-0.5C 499.5,166.167 499.5,332.833 499.5,499.5C 332.833,499.5 166.167,499.5 -0.5,499.5C -0.5,332.833 -0.5,166.167 -0.5,-0.5 Z"/></g>
<g><path style="opacity:1" fill="#d5221c" d="M 174.5,73.5 C 214.835,73.3333 255.168,73.5 295.5,74C 296.333,74.8333 297.167,75.6667 298,76.5C 298.013,110.585 298.68,144.585 300,178.5C 333.762,179.33 367.595,179.83 401.5,180C 402.333,180.833 403.167,181.667 404,182.5C 404.988,223.584 404.655,264.584 403,305.5C 371.573,306.496 340.073,306.829 308.5,306.5C 307.471,300.718 305.971,295.051 304,289.5C 303.512,282.388 303.845,275.388 305,268.5C 302.502,267.402 300.002,267.568 297.5,269C 294.605,273.29 292.105,277.79 290,282.5C 283.554,267.061 273.22,255.061 259,246.5C 257.289,246.439 255.956,247.106 255,248.5C 254.516,250.913 254.85,253.246 256,255.5C 260.667,261.5 265.333,267.5 270,273.5C 271.187,275.044 271.52,276.711 271,278.5C 262.897,269.374 253.73,261.54 243.5,255C 237,253.5 234.5,256 236,262.5C 246.333,270.167 255.333,279.167 263,289.5C 263.688,290.332 263.521,290.998 262.5,291.5C 253.684,283.852 245.017,276.018 236.5,268C 231.16,267.011 228.66,269.178 229,274.5C 238.419,283.583 247.419,292.916 256,302.5C 256.483,303.448 256.649,304.448 256.5,305.5C 246.961,301.478 238.294,295.978 230.5,289C 228.888,288.28 227.388,288.446 226,289.5C 225.333,291.833 225.333,294.167 226,296.5C 235.036,305.204 244.369,313.538 254,321.5C 258.944,329.443 264.277,337.109 270,344.5C 275.354,348.856 280.354,353.523 285,358.5C 289.528,368.418 293.861,378.418 298,388.5C 298.667,395.833 298.667,403.167 298,410.5C 297.5,411 297,411.5 296.5,412C 255.5,412.667 214.5,412.667 173.5,412C 172.874,411.25 172.374,410.416 172,409.5C 171.333,382.833 171.333,356.167 172,329.5C 176.755,315.563 182.088,301.896 188,288.5C 193.667,284.167 198.667,279.167 203,273.5C 208.583,265.336 213.916,257.003 219,248.5C 227.344,240.989 235.51,233.322 243.5,225.5C 248.483,219.155 247.15,215.988 239.5,216C 232.889,222.635 225.556,228.301 217.5,233C 216.056,233.781 214.723,233.614 213.5,232.5C 220.027,222.465 227.861,213.465 237,205.5C 238.866,203.481 240.033,201.148 240.5,198.5C 240.167,194.011 237.833,192.511 233.5,194C 224.349,202.317 215.349,210.817 206.5,219.5C 206.167,219.167 205.833,218.833 205.5,218.5C 213.405,207.425 222.572,197.425 233,188.5C 234.098,181.257 231.265,178.757 224.5,181C 214.204,188.24 205.038,196.74 197,206.5C 196.365,204.365 196.699,202.365 198,200.5C 203.159,194.183 207.826,187.516 212,180.5C 213.234,173.069 210.4,170.902 203.5,174C 191.981,184.686 182.981,197.186 176.5,211.5C 174.561,207.123 172.228,202.956 169.5,199C 166.376,197.313 163.209,197.146 160,198.5C 158.999,202.154 159.999,205.154 163,207.5C 163.167,209 163.333,210.5 163.5,212C 161.796,221.518 159.963,231.018 158,240.5C 157.847,249.55 157.18,258.55 156,267.5C 150.807,280.887 144.307,293.553 136.5,305.5C 113.507,306.666 90.5072,306.833 67.5,306C 66.8742,305.25 66.3742,304.416 66,303.5C 65.3333,263.167 65.3333,222.833 66,182.5C 66.8333,181.667 67.6667,180.833 68.5,180C 102.405,179.83 136.238,179.33 170,178.5C 171.32,144.585 171.987,110.585 172,76.5C 173.045,75.6266 173.878,74.6266 174.5,73.5 Z"/></g>
<g><path style="opacity:1" fill="#d5221c" d="M 340.5,93.5 C 347.5,93.5 354.5,93.5 361.5,93.5C 361.334,99.5092 361.501,105.509 362,111.5C 368.076,112.476 374.242,112.81 380.5,112.5C 380.5,119.833 380.5,127.167 380.5,134.5C 374.824,134.334 369.157,134.501 363.5,135C 363,135.5 362.5,136 362,136.5C 361.501,142.157 361.334,147.824 361.5,153.5C 354.492,153.666 347.492,153.5 340.5,153C 339.69,147.249 339.19,141.416 339,135.5C 333,134.833 327,134.167 321,133.5C 320.333,126.833 320.333,120.167 321,113.5C 327,112.833 333,112.167 339,111.5C 339.209,105.419 339.709,99.4193 340.5,93.5 Z"/></g>
</svg>
